<?xml version="1.0" encoding="UTF-8" standalone="no"?>
<svg
   xmlns:dc="http://purl.org/dc/elements/1.1/"
   xmlns:cc="http://creativecommons.org/ns#"
   xmlns:rdf="http://www.w3.org/1999/02/22-rdf-syntax-ns#"
   xmlns:svg="http://www.w3.org/2000/svg"
   xmlns="http://www.w3.org/2000/svg"
   xmlns:sodipodi="http://sodipodi.sourceforge.net/DTD/sodipodi-0.dtd"
   xmlns:inkscape="http://www.inkscape.org/namespaces/inkscape"
   width="22.999895mm"
   height="27.507168mm"
   viewBox="0 0 22.999895 27.507168"
   version="1.1"
   id="svg8"
   inkscape:version="1.0.1 (3bc2e813f5, 2020-09-07, custom)"
   sodipodi:docname="com.bjareholt.johan.SimpleDiary.svg">
  <defs
     id="defs2">
    <inkscape:perspective
       sodipodi:type="inkscape:persp3d"
       inkscape:vp_x="0 : -120.99284 : 1"
       inkscape:vp_y="0 : 1000 : 0"
       inkscape:vp_z="210.00001 : -120.99284 : 1"
       inkscape:persp3d-origin="105.00001 : -170.49284 : 1"
       id="perspective1273" />
    <filter
       inkscape:collect="always"
       style="color-interpolation-filters:sRGB"
       id="filter1076"
       x="-0.00014591315"
       width="1.0002918"
       y="-0.00016320779"
       height="1.0003264">
      <feGaussianBlur
         inkscape:collect="always"
         stdDeviation="0.0011640361"
         id="feGaussianBlur1078" />
    </filter>
  </defs>
  <sodipodi:namedview
     id="base"
     pagecolor="#ffffff"
     bordercolor="#666666"
     borderopacity="1.0"
     inkscape:pageopacity="0.0"
     inkscape:pageshadow="2"
     inkscape:zoom="15.961826"
     inkscape:cx="58.630546"
     inkscape:cy="91.725932"
     inkscape:document-units="mm"
     inkscape:current-layer="layer1"
     inkscape:document-rotation="0"
     showgrid="false"
     inkscape:snap-global="false"
     inkscape:window-width="1630"
     inkscape:window-height="1205"
     inkscape:window-x="0"
     inkscape:window-y="0"
     inkscape:window-maximized="0"
     fit-margin-top="0"
     fit-margin-left="0"
     fit-margin-right="0"
     fit-margin-bottom="0" />
  <metadata
     id="metadata5">
    <rdf:RDF>
      <cc:Work
         rdf:about="">
        <dc:format>image/svg+xml</dc:format>
        <dc:type
           rdf:resource="http://purl.org/dc/dcmitype/StillImage" />
        <dc:title />
      </cc:Work>
    </rdf:RDF>
  </metadata>
  <g
     inkscape:label="Book Back"
     inkscape:groupmode="layer"
     id="layer1"
     transform="translate(0.13216648,0.13216648)">
    <rect
       style="fill:#ffffff;fill-rule:evenodd;stroke:#502d16;stroke-width:0.267582;stroke-miterlimit:4;stroke-dasharray:none;stroke-opacity:1"
       id="rect20-6"
       width="22.716801"
       height="27.231979"
       x="0.0093083419"
       y="0.0092304852"
       rx="3.4075201"
       ry="3.2678373" />
    <rect
       style="fill:none;fill-rule:evenodd;stroke:#483e37;stroke-width:0.16018;stroke-miterlimit:4;stroke-dasharray:none;stroke-opacity:1"
       id="rect20-6-2"
       width="22.547329"
       height="25.583803"
       x="0.094045028"
       y="0.083782651"
       rx="3.3820992"
       ry="3.0700564" />
    <rect
       style="fill:none;fill-rule:evenodd;stroke:#483e37;stroke-width:0.162493;stroke-miterlimit:4;stroke-dasharray:none;stroke-opacity:1"
       id="rect20-6-2-9-1"
       width="22.544861"
       height="26.331169"
       x="0.095278181"
       y="0.0848675"
       rx="3.3817289"
       ry="3.1597402" />
  </g>
  <g
     inkscape:groupmode="layer"
     id="layer5"
     inkscape:label="Cover Image Background"
     style="display:inline;filter:url(#filter1076)"
     transform="translate(0.13216648,0.13216648)">
    <path
       id="rect20-6-6-2-3"
       style="fill:#00c2ec;fill-opacity:1;fill-rule:evenodd;stroke:none;stroke-width:0.181612;stroke-miterlimit:4;stroke-dasharray:none;stroke-opacity:1"
       d="M 4.6744616,1.2288821 H 18.057987 c 1.588816,0 2.867898,0.6614102 2.867898,1.4829839 v 9.392246 c 0,0.821574 -1.279082,1.482987 -2.867898,1.482987 H 4.6744616 c -1.5888155,0 -2.867898,-0.661413 -2.867898,-1.482987 V 2.711866 c 0,-0.8215737 1.2790825,-1.4829839 2.867898,-1.4829839 z" />
    <path
       id="rect20-6-6-2-3-6"
       style="display:inline;fill:#00c200;fill-opacity:1;fill-rule:evenodd;stroke:none;stroke-width:0.150087;stroke-miterlimit:4;stroke-dasharray:none;stroke-opacity:1"
       d="M 4.6475541,9.9061099 H 18.03108 c 1.588816,0 2.867898,0.4517141 2.867898,1.0128131 v 6.414503 c 0,0.561099 -1.279082,1.012817 -2.867898,1.012817 H 4.6475541 c -1.588816,0 -2.867898,-0.451718 -2.867898,-1.012817 v -6.414503 c 0,-0.561099 1.279082,-1.0128131 2.867898,-1.0128131 z" />
  </g>
  <g
     inkscape:groupmode="layer"
     id="layer2"
     inkscape:label="Book Front"
     transform="translate(0.13216648,0.13216648)">
    <path
       id="rect20-6-6"
       style="fill:#d45500;fill-rule:evenodd;stroke:#502d16;stroke-width:1.06546;stroke-opacity:1"
       d="m 12.912109,0.03320312 c -7.1352711,0 -12.87890588,5.05434788 -12.87890588,11.33203088 v 71.765625 c 0,6.277686 5.74363478,11.332032 12.87890588,11.332032 h 60.105469 c 7.135272,0 12.878906,-5.054346 12.878906,-11.332032 V 11.365234 c 0,-6.277683 -5.743634,-11.33203088 -12.878906,-11.33203088 z m 4.507813,5.66601568 h 51.089844 c 6.064981,0 10.947265,3.4362533 10.947265,7.7050782 v 48.800781 c 0,4.268822 -4.882284,7.705078 -10.947265,7.705078 H 17.419922 c -6.06498,0 -10.9472658,-3.436256 -10.9472658,-7.705078 V 13.404297 c 0,-4.2688249 4.8822858,-7.7050782 10.9472658,-7.7050782 z"
       transform="scale(0.26458333)" />
  </g>
  <g
     inkscape:groupmode="layer"
     id="layer4"
     inkscape:label="Cover Text"
     transform="translate(0.13216648,0.13216648)">
    <path
       style="fill:none;stroke:#000000;stroke-width:0.267523px;stroke-linecap:butt;stroke-linejoin:miter;stroke-opacity:1"
       d="m 4.3790145,21.902101 c 0.7584713,0.3062 2.2854079,-1.716661 2.7047798,-0.0069 0.069143,0.281895 0.1149901,1.008376 -0.00677,1.256592 -0.515057,1.049942 -1.9598492,-0.889364 -1.2608592,-1.601809 0.2168719,-0.221046 1.3015442,-0.729196 1.3015442,0.02069 0,0.340622 -0.00677,1.362467 -0.00677,1.021845 0,-0.778168 -0.094917,-1.568449 -0.094917,-2.347437 0,-0.44899 0.3984908,-1.346328 -0.040685,-1.346328 -0.4257535,0 0.047459,0.869634 0.047459,1.304901 0,0.756933 -0.078474,3.332368 1.2134006,3.1138 0.5971439,-0.101029 0.5016423,-1.109228 0.5016423,-1.553459 0,-0.170294 0.1665711,-0.510879 0,-0.510879 -0.3284953,0 0.2672046,2.410872 0.8677235,2.105762 0.5018063,-0.254954 0.3354179,-1.217877 0.6642993,-1.663926 0.323059,-0.438151 0.795192,-0.483263 1.287996,-0.483263 0.147978,0 0.440636,0.206521 0.440636,0.05524 0,-0.712054 -3.1605542,1.229139 -0.942278,1.981528 0.802054,0.272038 1.066788,-1.477532 1.010058,-1.477532 -0.157753,0 0.2658,1.278777 0.37963,1.394679 1.135952,1.156645 1.209209,-2.112732 1.104935,-2.112732 -0.114897,0 0.184751,0.548155 0.318623,0.593774 0.474378,0.161662 1.284059,-0.55923 1.172757,-0.55923 -0.862854,0 -1.872878,0.920479 -1.206668,1.767471 1.639612,2.084538 2.322642,-1.864132 1.952336,-1.864132 -0.09589,0 -0.022,1.998709 0.589745,2.154115 1.544758,0.392426 1.057518,-3.913769 1.057518,-1.00111 0,0.463824 -0.156423,3.419231 -0.9626,2.050571 -0.322225,-0.547047 0.670228,-0.375555 0.826998,-0.407377 0.871475,-0.176896 1.592115,-1.114697 1.796412,-1.946984"
       id="path1121" />
    <path
       style="fill:none;stroke:#000000;stroke-width:0.264583px;stroke-linecap:butt;stroke-linejoin:miter;stroke-opacity:1"
       d="m 8.5559793,20.067664 c 0.2121689,0.152005 0.1816021,0.230834 0.059329,0.420333"
       id="path1124" />
  </g>
  <g
     inkscape:groupmode="layer"
     id="layer3"
     inkscape:label="Cover Image"
     transform="translate(0.13216648,0.13216648)">
    <ellipse
       style="fill:#ffcc00;stroke-width:0.340091"
       id="path40"
       cx="15.963577"
       cy="5.5590682"
       rx="2.4442303"
       ry="2.3895376" />
    <ellipse
       style="fill:#008000;stroke-width:0.255133"
       id="path44"
       cx="6.9352522"
       cy="12.781431"
       rx="3.4080367"
       ry="2.50945" />
    <path
       id="rect1188"
       style="fill:#552200;fill-opacity:1;stroke:none;stroke-width:0.665529;stroke-miterlimit:4;stroke-dasharray:none;stroke-opacity:1"
       d="m 19.789062,52.482422 a 11.954016,9.5722439 0 0 1 2.367188,5.875 11.954016,9.5722439 0 0 1 -7.958984,8.86914 11.954016,9.5722439 0 0 1 -1.134766,0.269532 v 0.515625 h 25.207031 v -1.048828 a 11.954016,10.944406 0 0 1 -0.753906,0.1875 A 11.954016,10.944406 0 0 1 29.556641,57.011719 11.954016,10.944406 0 0 1 32.875,52.482422 h -4.517578 l -2.220703,2.578125 -2.482422,-2.578125 z"
       transform="scale(0.26458333)" />
    <path
       id="rect1275"
       style="fill:#ff0000;fill-opacity:1;stroke:none;stroke-width:0.182688;stroke-miterlimit:4;stroke-dasharray:none;stroke-opacity:1"
       d="m 12.740437,11.250052 a 2.2649198,2.1392599 83.650725 0 0 -0.06563,3.180566 l -0.0073,0.0073 2.939374,3.252438 3.078072,-3.105883 -0.0028,-0.003 a 2.1279635,2.2485077 0 0 0 0.597681,-2.155073 2.1279635,2.2485077 0 0 0 -1.469022,-1.628176 2.1279635,2.2485077 0 0 0 -2.068668,0.531481 l 0.0028,0.003 -0.01845,0.01861 A 2.2649198,2.1392599 83.650725 0 0 12.740478,11.25002 Z" />
    <path
       style="fill:#b3b3b3;stroke:#000000;stroke-width:0.469759px;stroke-linecap:butt;stroke-linejoin:miter;stroke-opacity:1"
       d="M 4.359585,4.8598325 C 3.5542557,4.3776637 1.7151444,5.7431061 2.7520799,6.7407346 3.7109891,7.6632954 5.2889369,7.6634779 6.4649744,7.5432644 7.1394964,7.4743152 7.8206598,7.4412757 8.4921358,7.3426319 15.936527,6.2490021 5.791738,2.6863298 4.3951236,3.7814081 4.2251884,3.9146537 4.2821197,4.6413459 4.2955724,4.9016054"
       id="path1305" />
    <path
       style="fill:#b3b3b3;stroke:#000000;stroke-width:0.469759px;stroke-linecap:butt;stroke-linejoin:miter;stroke-opacity:1"
       d="M 6.2089249,5.7041345 C 5.6965212,7.3348567 8.9666552,8.9375533 8.719755,7.4847207 8.6183264,6.8878869 8.1071202,6.4047919 7.8377532,5.9382055"
       id="path1307" />
    <path
       style="fill:#b3b3b3;stroke:#000000;stroke-width:0.469759px;stroke-linecap:butt;stroke-linejoin:miter;stroke-opacity:1"
       d="M 8.947374,5.2276583 C 8.9728223,4.8829654 9.0681479,4.5274499 9.1678854,4.1993922 9.2761513,3.8432823 9.1875339,3.317463 9.3243407,2.9956491 9.4757447,2.6395045 11.118181,2.5979808 11.095454,2.8786138 11.024274,3.7574981 10.378813,4.4764205 10.092534,5.252712"
       id="path1309" />
    <path
       style="fill:#ffffff;stroke:#000000;stroke-width:0.469759px;stroke-linecap:butt;stroke-linejoin:miter;stroke-opacity:1"
       d="m 4.2025231,4.8238528 c 0.2564946,-0.019294 0.4998251,0.2093374 0.7456394,0.2093374 0.2308882,0 0.4185155,0.076898 0.6550691,0.021288 C 6.1068694,4.9360781 6.3210832,4.1986143 5.9473575,3.7595014 5.6608958,3.4229205 4.713752,3.6126445 4.5134668,3.9652798 4.4051745,4.1559464 4.4703726,4.5409138 4.4289299,4.7635481"
       id="path1315" />
    <path
       style="fill:#ffffff;stroke:#000000;stroke-width:0.177546;stroke-linecap:butt;stroke-linejoin:miter;stroke-miterlimit:4;stroke-dasharray:none;stroke-opacity:1"
       d="M 7.0280727,4.195884 C 6.1132814,4.089323 6.5632248,5.5010827 7.1095746,4.8593322 7.1847035,4.7710846 7.2546344,4.6366404 7.227312,4.5081 7.1940917,4.3518064 7.0644662,4.2166089 6.9495872,4.1533092"
       id="path1323" />
    <path
       style="fill:#ffffff;stroke:#000000;stroke-width:0.177546;stroke-linecap:butt;stroke-linejoin:miter;stroke-miterlimit:4;stroke-dasharray:none;stroke-opacity:1"
       d="m 8.2265251,4.4122955 c -1.0166296,-0.3767016 -0.570322,1.334696 0.024151,0.7060232 0.084847,-0.089729 0.1841385,-0.2067786 0.1841385,-0.3512323 0,-0.2140139 -0.2635981,-0.3632586 -0.3863945,-0.4399406"
       id="path1325" />
    <path
       style="fill:none;stroke:#ffcc00;stroke-width:0.264583px;stroke-linecap:butt;stroke-linejoin:miter;stroke-opacity:1"
       d="M 18.081675,3.4917449 C 18.343601,2.9938383 18.96721,2.8778521 19.425112,2.5682263"
       id="path1337" />
    <path
       style="fill:none;stroke:#ffcc00;stroke-width:0.264583px;stroke-linecap:butt;stroke-linejoin:miter;stroke-opacity:1"
       d="m 18.928492,5.025673 c 0.510752,0.2357218 1.000286,0.099906 1.544975,0.020055"
       id="path1339" />
    <path
       style="fill:none;stroke:#ffcc00;stroke-width:0.264583px;stroke-linecap:butt;stroke-linejoin:miter;stroke-opacity:1"
       d="m 17.904757,7.9176474 c 0.452306,0.193617 0.61438,0.6207924 0.974005,0.9101341"
       id="path1341" />
    <path
       style="fill:none;stroke:#ffcc00;stroke-width:0.264583px;stroke-linecap:butt;stroke-linejoin:miter;stroke-opacity:1"
       d="m 15.630252,8.2311588 c -0.135145,0.5279393 0.06567,0.9745385 -0.107482,1.5391977"
       id="path1345" />
    <path
       style="fill:none;stroke:#ffcc00;stroke-width:0.264583px;stroke-linecap:butt;stroke-linejoin:miter;stroke-opacity:1"
       d="M 13.488039,3.3010754 C 13.053903,3.3470449 12.708797,2.7918752 12.413266,2.484672"
       id="path1349" />
    <path
       style="fill:none;stroke:#ffcc00;stroke-width:0.264583px;stroke-linecap:butt;stroke-linejoin:miter;stroke-opacity:1"
       d="M 16.217709,2.7459512 C 15.654167,2.585475 15.849671,2.2397496 15.875127,1.7956638"
       id="path1357" />
    <path
       style="fill:none;stroke:#ffcc00;stroke-width:0.264583px;stroke-linecap:butt;stroke-linejoin:miter;stroke-opacity:1"
       d="M 12.916362,5.6728976 C 12.618538,5.4194125 12.346561,5.4075883 11.996098,5.4922295"
       id="path1361" />
    <path
       style="fill:none;stroke:#ffcc00;stroke-width:0.264583px;stroke-linecap:butt;stroke-linejoin:miter;stroke-opacity:1"
       d="m 13.411753,7.4132025 c -0.07533,0.6015114 -0.864654,0.621938 -1.162077,1.1108586"
       id="path1363" />
  </g>
</svg>
