<?xml version="1.0" encoding="UTF-8" standalone="no"?>
<svg
   width="27.5mm"
   height="27.5mm"
   viewBox="0 0 27.5 27.5"
   version="1.1"
   id="svg8"
   inkscape:version="1.2.1 (9c6d41e410, 2022-07-14, custom)"
   sodipodi:docname="logo.svg"
   xmlns:inkscape="http://www.inkscape.org/namespaces/inkscape"
   xmlns:sodipodi="http://sodipodi.sourceforge.net/DTD/sodipodi-0.dtd"
   xmlns="http://www.w3.org/2000/svg"
   xmlns:svg="http://www.w3.org/2000/svg"
   xmlns:rdf="http://www.w3.org/1999/02/22-rdf-syntax-ns#"
   xmlns:cc="http://creativecommons.org/ns#"
   xmlns:dc="http://purl.org/dc/elements/1.1/">
  <defs
     id="defs2">
    <inkscape:perspective
       sodipodi:type="inkscape:persp3d"
       inkscape:vp_x="0 : -121.00001 : 1"
       inkscape:vp_y="0 : 1000 : 0"
       inkscape:vp_z="210.00001 : -121.00001 : 1"
       inkscape:persp3d-origin="105.00001 : -170.50001 : 1"
       id="perspective1273" />
    <filter
       inkscape:collect="always"
       style="color-interpolation-filters:sRGB"
       id="filter1076"
       x="-0.00014591315"
       width="1.0002918"
       y="-0.00016320779"
       height="1.0003264">
      <feGaussianBlur
         inkscape:collect="always"
         stdDeviation="0.0011640361"
         id="feGaussianBlur1078" />
    </filter>
  </defs>
  <sodipodi:namedview
     id="base"
     pagecolor="#ffffff"
     bordercolor="#666666"
     borderopacity="1.0"
     inkscape:pageopacity="0.0"
     inkscape:pageshadow="2"
     inkscape:zoom="10.635819"
     inkscape:cx="29.146793"
     inkscape:cy="51.194931"
     inkscape:document-units="mm"
     inkscape:current-layer="layer1"
     inkscape:document-rotation="0"
     showgrid="false"
     inkscape:snap-global="false"
     inkscape:window-width="1778"
     inkscape:window-height="1388"
     inkscape:window-x="0"
     inkscape:window-y="0"
     inkscape:window-maximized="1"
     fit-margin-top="0"
     fit-margin-left="0"
     fit-margin-right="0"
     fit-margin-bottom="0"
     inkscape:showpageshadow="2"
     inkscape:pagecheckerboard="0"
     inkscape:deskcolor="#d1d1d1" />
  <metadata
     id="metadata5">
    <rdf:RDF>
      <cc:Work
         rdf:about="">
        <dc:format>image/svg+xml</dc:format>
        <dc:type
           rdf:resource="http://purl.org/dc/dcmitype/StillImage" />
      </cc:Work>
    </rdf:RDF>
  </metadata>
  <g
     inkscape:label="Book Back"
     inkscape:groupmode="layer"
     id="layer1"
     transform="translate(0.13216648,0.13216648)">
    <rect
       style="fill:#ffffff;fill-rule:evenodd;stroke:#502d16;stroke-width:0.267582;stroke-miterlimit:4;stroke-dasharray:none;stroke-opacity:1"
       id="rect20-6"
       width="22.716801"
       height="27.231979"
       x="2.7593088"
       y="0.0092304852"
       rx="3.4075201"
       ry="3.2678373" />
    <rect
       style="fill:none;fill-rule:evenodd;stroke:#483e37;stroke-width:0.16018;stroke-miterlimit:4;stroke-dasharray:none;stroke-opacity:1"
       id="rect20-6-2"
       width="22.547329"
       height="25.583803"
       x="2.8440452"
       y="0.083782651"
       rx="3.3820992"
       ry="3.0700564" />
    <rect
       style="fill:none;fill-rule:evenodd;stroke:#483e37;stroke-width:0.162493;stroke-miterlimit:4;stroke-dasharray:none;stroke-opacity:1"
       id="rect20-6-2-9-1"
       width="22.544861"
       height="26.331169"
       x="2.8452783"
       y="0.0848675"
       rx="3.3817289"
       ry="3.1597402" />
  </g>
  <g
     inkscape:groupmode="layer"
     id="layer5"
     inkscape:label="Cover Image Background"
     style="display:inline;filter:url(#filter1076)"
     transform="translate(0.13216648,0.13216648)">
    <path
       id="rect20-6-6-2-3"
       style="fill:#00c2ec;fill-opacity:1;fill-rule:evenodd;stroke:none;stroke-width:0.181612;stroke-miterlimit:4;stroke-dasharray:none;stroke-opacity:1"
       d="M 7.4244617,1.2288821 H 20.80799 c 1.588816,0 2.867898,0.6614102 2.867898,1.4829839 v 9.392246 c 0,0.821574 -1.279082,1.482987 -2.867898,1.482987 H 7.4244617 c -1.5888155,0 -2.867898,-0.661413 -2.867898,-1.482987 V 2.711866 c 0,-0.8215737 1.2790825,-1.4829839 2.867898,-1.4829839 z" />
    <path
       id="rect20-6-6-2-3-6"
       style="display:inline;fill:#00c200;fill-opacity:1;fill-rule:evenodd;stroke:none;stroke-width:0.150087;stroke-miterlimit:4;stroke-dasharray:none;stroke-opacity:1"
       d="M 7.3975542,9.9061099 H 20.781083 c 1.588816,0 2.867898,0.4517141 2.867898,1.0128131 v 6.414503 c 0,0.561099 -1.279082,1.012817 -2.867898,1.012817 H 7.3975542 c -1.588816,0 -2.867898,-0.451718 -2.867898,-1.012817 v -6.414503 c 0,-0.561099 1.279082,-1.0128131 2.867898,-1.0128131 z" />
  </g>
  <g
     inkscape:groupmode="layer"
     id="layer2"
     inkscape:label="Book Front"
     transform="translate(0.13216648,0.13216648)">
    <path
       id="rect20-6-6"
       style="fill:#d45500;fill-rule:evenodd;stroke:#502d16;stroke-width:0.281903;stroke-opacity:1"
       d="m 6.1663289,0.00878499 c -1.8878738,0 -3.4075439,1.33729621 -3.4075439,2.99826651 V 21.995039 c 0,1.660972 1.5196701,2.998267 3.4075439,2.998267 H 22.069237 c 1.887874,0 3.407543,-1.337295 3.407543,-2.998267 V 3.0070515 c 0,-1.6609703 -1.519669,-2.99826651 -3.407543,-2.99826651 z M 7.359021,1.5079183 h 13.517524 c 1.604693,0 2.896464,0.9091753 2.896464,2.0386352 V 16.458427 c 0,1.129459 -1.291771,2.038635 -2.896464,2.038635 H 7.359021 c -1.6046926,0 -2.896464,-0.909176 -2.896464,-2.038635 V 3.5465535 c 0,-1.1294599 1.2917714,-2.0386352 2.896464,-2.0386352 z" />
  </g>
  <g
     inkscape:groupmode="layer"
     id="layer4"
     inkscape:label="Cover Text"
     transform="translate(0.13216648,0.13216648)">
    <path
       style="fill:none;stroke:#000000;stroke-width:0.267523px;stroke-linecap:butt;stroke-linejoin:miter;stroke-opacity:1"
       d="m 7.1290146,21.902101 c 0.7584713,0.3062 2.2854084,-1.716661 2.7047804,-0.0069 0.06914,0.281895 0.114991,1.008376 -0.0068,1.256592 -0.515057,1.049942 -1.9598498,-0.889364 -1.260859,-1.601809 0.216872,-0.221046 1.301544,-0.729196 1.301544,0.02069 0,0.340622 -0.0068,1.362467 -0.0068,1.021845 0,-0.778168 -0.09492,-1.568449 -0.09492,-2.347437 0,-0.44899 0.398492,-1.346328 -0.04068,-1.346328 -0.425753,0 0.04746,0.869634 0.04746,1.304901 0,0.756933 -0.07847,3.332368 1.213402,3.1138 0.597144,-0.101029 0.501642,-1.109228 0.501642,-1.553459 0,-0.170294 0.166571,-0.510879 0,-0.510879 -0.328495,0 0.267205,2.410872 0.867724,2.105762 0.501807,-0.254954 0.335418,-1.217877 0.6643,-1.663926 0.323059,-0.438151 0.795192,-0.483263 1.287996,-0.483263 0.147978,0 0.440636,0.206521 0.440636,0.05524 0,-0.712054 -3.160555,1.229139 -0.942278,1.981528 0.802054,0.272038 1.066788,-1.477532 1.010058,-1.477532 -0.157753,0 0.2658,1.278777 0.37963,1.394679 1.135952,1.156645 1.209209,-2.112732 1.104935,-2.112732 -0.114897,0 0.184751,0.548155 0.318623,0.593774 0.474378,0.161662 1.284059,-0.55923 1.172757,-0.55923 -0.862854,0 -1.872878,0.920479 -1.206668,1.767471 1.639612,2.084538 2.322642,-1.864132 1.952336,-1.864132 -0.09589,0 -0.022,1.998709 0.589745,2.154115 1.544758,0.392426 1.057518,-3.913769 1.057518,-1.00111 0,0.463824 -0.156423,3.419231 -0.9626,2.050571 -0.322225,-0.547047 0.670228,-0.375555 0.826998,-0.407377 0.871475,-0.176896 1.592115,-1.114697 1.796412,-1.946984"
       id="path1121" />
    <path
       style="fill:none;stroke:#000000;stroke-width:0.264583px;stroke-linecap:butt;stroke-linejoin:miter;stroke-opacity:1"
       d="m 11.305981,20.067664 c 0.212169,0.152005 0.181602,0.230834 0.05933,0.420333"
       id="path1124" />
  </g>
  <g
     inkscape:groupmode="layer"
     id="layer3"
     inkscape:label="Cover Image"
     transform="translate(0.13216648,0.13216648)">
    <ellipse
       style="fill:#ffcc00;stroke-width:0.340091"
       id="path40"
       cx="18.713581"
       cy="5.5590682"
       rx="2.4442303"
       ry="2.3895376" />
    <ellipse
       style="fill:#008000;stroke-width:0.255133"
       id="path44"
       cx="9.6852465"
       cy="12.781431"
       rx="3.4080367"
       ry="2.50945" />
    <path
       id="rect1188"
       style="fill:#552200;fill-opacity:1;stroke:none;stroke-width:0.176088;stroke-miterlimit:4;stroke-dasharray:none;stroke-opacity:1"
       d="m 7.985856,13.885974 a 3.1628334,2.5326562 0 0 1 0.626319,1.554427 3.1628334,2.5326562 0 0 1 -2.105815,2.346627 3.1628334,2.5326562 0 0 1 -0.3002402,0.07131 v 0.136426 h 6.6693632 v -0.277499 a 3.1628334,2.8957074 0 0 1 -0.199471,0.04961 3.1628334,2.8957074 0 0 1 -2.105816,-2.682524 3.1628334,2.8957074 0 0 1 0.877983,-1.198376 H 10.252903 L 9.665341,14.568103 9.008533,13.885974 Z" />
    <path
       id="rect1275"
       style="fill:#ff0000;fill-opacity:1;stroke:none;stroke-width:0.182688;stroke-miterlimit:4;stroke-dasharray:none;stroke-opacity:1"
       d="m 15.49044,11.250052 a 2.2649198,2.1392599 83.650725 0 0 -0.06563,3.180566 l -0.0073,0.0073 2.939374,3.252438 3.078072,-3.105883 -0.0028,-0.003 a 2.1279635,2.2485077 0 0 0 0.597681,-2.155073 2.1279635,2.2485077 0 0 0 -1.469022,-1.628176 2.1279635,2.2485077 0 0 0 -2.068668,0.531481 l 0.0028,0.003 -0.01845,0.01861 A 2.2649198,2.1392599 83.650725 0 0 15.490481,11.25002 Z" />
    <path
       style="fill:#b3b3b3;stroke:#000000;stroke-width:0.469759px;stroke-linecap:butt;stroke-linejoin:miter;stroke-opacity:1"
       d="M 7.1095851,4.8598325 C 6.3042558,4.3776637 4.4651445,5.7431061 5.50208,6.7407346 6.4609892,7.6632954 8.0389368,7.6634779 9.214975,7.5432644 9.889498,7.4743152 10.570661,7.4412757 11.242138,7.3426319 18.68653,6.2490021 8.541739,2.6863298 7.1451237,3.7814081 6.9751885,3.9146537 7.0321198,4.6413459 7.0455725,4.9016054"
       id="path1305" />
    <path
       style="fill:#b3b3b3;stroke:#000000;stroke-width:0.469759px;stroke-linecap:butt;stroke-linejoin:miter;stroke-opacity:1"
       d="M 8.958925,5.7041345 C 8.446521,7.3348567 11.716658,8.9375533 11.469757,7.4847207 11.368328,6.8878869 10.857122,6.4047919 10.587755,5.9382055"
       id="path1307" />
    <path
       style="fill:#b3b3b3;stroke:#000000;stroke-width:0.469759px;stroke-linecap:butt;stroke-linejoin:miter;stroke-opacity:1"
       d="m 11.697376,5.2276583 c 0.02545,-0.3446929 0.120774,-0.7002084 0.220512,-1.0282661 0.108266,-0.3561099 0.01965,-0.8819292 0.156455,-1.2037431 0.151404,-0.3561446 1.793841,-0.3976683 1.771114,-0.1170353 -0.07118,0.8788843 -0.716641,1.5978067 -1.00292,2.3740982"
       id="path1309" />
    <path
       style="fill:#ffffff;stroke:#000000;stroke-width:0.469759px;stroke-linecap:butt;stroke-linejoin:miter;stroke-opacity:1"
       d="m 6.9525232,4.8238528 c 0.2564946,-0.019294 0.4998251,0.2093374 0.7456394,0.2093374 0.2308882,0 0.4185154,0.076898 0.6550694,0.021288 C 8.85687,4.9360781 9.071084,4.1986143 8.697358,3.7595014 8.410896,3.4229205 7.4637521,3.6126445 7.2634669,3.9652798 7.1551746,4.1559464 7.2203727,4.5409138 7.17893,4.7635481"
       id="path1315" />
    <path
       style="fill:#ffffff;stroke:#000000;stroke-width:0.177546;stroke-linecap:butt;stroke-linejoin:miter;stroke-miterlimit:4;stroke-dasharray:none;stroke-opacity:1"
       d="M 9.778074,4.195884 C 8.863282,4.089323 9.313226,5.5010827 9.859576,4.8593322 9.934705,4.7710846 10.004636,4.6366404 9.977313,4.5081 9.944093,4.3518064 9.814467,4.2166089 9.699588,4.1533092"
       id="path1323" />
    <path
       style="fill:#ffffff;stroke:#000000;stroke-width:0.177546;stroke-linecap:butt;stroke-linejoin:miter;stroke-miterlimit:4;stroke-dasharray:none;stroke-opacity:1"
       d="m 10.976527,4.4122955 c -1.01663,-0.3767016 -0.570322,1.334696 0.02415,0.7060232 0.08485,-0.089729 0.184139,-0.2067786 0.184139,-0.3512323 0,-0.2140139 -0.263599,-0.3632586 -0.386395,-0.4399406"
       id="path1325" />
    <path
       style="fill:none;stroke:#ffcc00;stroke-width:0.264583px;stroke-linecap:butt;stroke-linejoin:miter;stroke-opacity:1"
       d="M 20.831678,3.4917449 C 21.093604,2.9938383 21.717213,2.8778521 22.175115,2.5682263"
       id="path1337" />
    <path
       style="fill:none;stroke:#ffcc00;stroke-width:0.264583px;stroke-linecap:butt;stroke-linejoin:miter;stroke-opacity:1"
       d="m 21.678495,5.025673 c 0.510752,0.2357218 1.000286,0.099906 1.544975,0.020055"
       id="path1339" />
    <path
       style="fill:none;stroke:#ffcc00;stroke-width:0.264583px;stroke-linecap:butt;stroke-linejoin:miter;stroke-opacity:1"
       d="m 20.65476,7.9176474 c 0.452306,0.193617 0.61438,0.6207924 0.974005,0.9101341"
       id="path1341" />
    <path
       style="fill:none;stroke:#ffcc00;stroke-width:0.264583px;stroke-linecap:butt;stroke-linejoin:miter;stroke-opacity:1"
       d="m 18.380255,8.2311588 c -0.135145,0.5279393 0.06567,0.9745385 -0.107482,1.5391977"
       id="path1345" />
    <path
       style="fill:none;stroke:#ffcc00;stroke-width:0.264583px;stroke-linecap:butt;stroke-linejoin:miter;stroke-opacity:1"
       d="M 16.238042,3.3010754 C 15.803906,3.3470449 15.4588,2.7918752 15.163269,2.484672"
       id="path1349" />
    <path
       style="fill:none;stroke:#ffcc00;stroke-width:0.264583px;stroke-linecap:butt;stroke-linejoin:miter;stroke-opacity:1"
       d="M 18.967712,2.7459512 C 18.40417,2.585475 18.599674,2.2397496 18.62513,1.7956638"
       id="path1357" />
    <path
       style="fill:none;stroke:#ffcc00;stroke-width:0.264583px;stroke-linecap:butt;stroke-linejoin:miter;stroke-opacity:1"
       d="M 15.666365,5.6728976 C 15.368541,5.4194125 15.096564,5.4075883 14.746101,5.4922295"
       id="path1361" />
    <path
       style="fill:none;stroke:#ffcc00;stroke-width:0.264583px;stroke-linecap:butt;stroke-linejoin:miter;stroke-opacity:1"
       d="m 16.161756,7.4132025 c -0.07533,0.6015114 -0.864654,0.621938 -1.162077,1.1108586"
       id="path1363" />
  </g>
</svg>
